<svg width="16" height="17" viewBox="0 0 16 17" fill="none" xmlns="http://www.w3.org/2000/svg">
<path d="M1.3335 8.5C1.3335 5.67157 1.3335 4.25736 2.30981 3.37868C3.28612 2.5 4.85747 2.5 8.00016 2.5C11.1429 2.5 12.7142 2.5 13.6905 3.37868C14.6668 4.25736 14.6668 5.67157 14.6668 8.5C14.6668 11.3284 14.6668 12.7426 13.6905 13.6213C12.7142 14.5 11.1429 14.5 8.00016 14.5C4.85747 14.5 3.28612 14.5 2.30981 13.6213C1.3335 12.7426 1.3335 11.3284 1.3335 8.5Z" stroke="#F44D21" stroke-width="1.25" stroke-linecap="round" stroke-linejoin="round"/>
<path d="M5.6 5.8335H5.06667C4.56384 5.8335 4.31242 5.8335 4.15621 5.98971C4 6.14592 4 6.39733 4 6.90016V7.4335C4 7.93633 4 8.18774 4.15621 8.34395C4.31242 8.50016 4.56384 8.50016 5.06667 8.50016H5.6C6.10283 8.50016 6.35425 8.50016 6.51046 8.34395C6.66667 8.18774 6.66667 7.93633 6.66667 7.4335V6.90016C6.66667 6.39733 6.66667 6.14592 6.51046 5.98971C6.35425 5.8335 6.10283 5.8335 5.6 5.8335Z" stroke="#F44D21" stroke-width="1.25" stroke-linejoin="round"/>
<path d="M4 11.1665H6.66667" stroke="#F44D21" stroke-width="1.25" stroke-linecap="round" stroke-linejoin="round"/>
<path d="M9.3335 5.8335H12.0002" stroke="#F44D21" stroke-width="1.25" stroke-linecap="round" stroke-linejoin="round"/>
<path d="M9.3335 8.5H12.0002" stroke="#F44D21" stroke-width="1.25" stroke-linecap="round" stroke-linejoin="round"/>
<path d="M9.3335 11.1665H12.0002" stroke="#F44D21" stroke-width="1.25" stroke-linecap="round" stroke-linejoin="round"/>
</svg>
