<?xml version="1.0" encoding="utf-8"?>
<!-- Generator: Adobe Illustrator 24.0.0, SVG Export Plug-In . SVG Version: 6.00 Build 0)  -->
<svg version="1.1" xmlns="http://www.w3.org/2000/svg" xmlns:xlink="http://www.w3.org/1999/xlink" x="0px" y="0px"
	 viewBox="0 0 256 256" style="enable-background:new 0 0 256 256;" xml:space="preserve">
<style type="text/css">
	.st0{fill:#F98FA6;}
	.st1{fill:#FC657E;}
	.st2{fill:#DAE6F1;}
	.st3{fill:#5290DB;}
	.st4{fill:#FCDD86;}
	.st5{fill:#F5C84C;}
	.st6{fill:#87D147;}
	.st7{fill:#70D6F9;}
	.st8{fill:#EDF4FC;}
	.st9{fill:#9BE5F9;}
	.st10{fill:#B2E26D;}
	.st11{fill:#F9C1A8;}
	.st12{fill:#414344;}
	.st13{fill:#E1FBFF;}
	.st14{fill:#FFE3EC;}
	.st15{fill:#FCBECF;}
	.st16{fill:#EF4460;}
	.st17{fill:#80C2F9;}
	.st18{fill:#3A70BF;}
	.st19{fill:#FCA265;}
	.st20{fill:#5B5D60;}
	.st21{fill:#818182;}
	.st22{fill:#C7D7E5;}
	.st23{fill:#F9D0B4;}
	.st24{fill:#AA6F59;}
	.st25{fill:#D1856D;}
	.st26{fill:#FCC29A;}
	.st27{fill:#29589F;}
	.st28{fill:#F7B386;}
	.st29{fill:#FC8C48;}
	.st30{fill:#FFF0CC;}
	.st31{fill:#57AF12;}
	.st32{fill:#3CAADC;}
	.st33{fill:#EDB311;}
	.st34{fill:#231F20;}
</style>
<g id="Layer_1">
</g>
<g id="Layer_2">
</g>
<g id="Layer_3">
</g>
<g id="Layer_4">
</g>
<g id="Layer_5">
</g>
<g id="Layer_6">
</g>
<g id="Layer_7">
</g>
<g id="Layer_8">
</g>
<g id="Layer_9">
</g>
<g id="Layer_10">
</g>
<g id="Layer_11">
</g>
<g id="Layer_12">
</g>
<g id="Layer_13">
</g>
<g id="Layer_14">
</g>
<g id="Layer_15">
</g>
<g id="Layer_16">
</g>
<g id="Layer_17">
</g>
<g id="Layer_18">
</g>
<g id="Layer_19">
</g>
<g id="Layer_20">
</g>
<g id="Layer_21">
</g>
<g id="Layer_22">
</g>
<g id="Layer_23">
</g>
<g id="Layer_24">
</g>
<g id="Layer_25">
</g>
<g id="Layer_26">
</g>
<g id="Layer_27">
</g>
<g id="Layer_28">
</g>
<g id="Layer_29">
</g>
<g id="Layer_30">
</g>
<g id="Layer_31">
</g>
<g id="Layer_32">
</g>
<g id="Layer_33">
</g>
<g id="Layer_34">
</g>
<g id="Layer_35">
</g>
<g id="Layer_36">
</g>
<g id="Layer_37">
</g>
<g id="Layer_38">
</g>
<g id="Layer_39">
</g>
<g id="Layer_40">
</g>
<g id="Layer_41">
</g>
<g id="Layer_42">
	<g>
		<g>
			<g>
				<path class="st1" d="M233.529,84.139L133.474,10.332c-1.683-1.242-3.979-1.242-5.662,0L27.756,84.139
					c-3.704,2.732-1.771,8.607,2.831,8.607h200.11C235.3,92.746,237.232,86.871,233.529,84.139z"/>
			</g>
		</g>
		<g>
			<g>
				<path class="st3" d="M31.073,92.746v5.096c0,2.808,2.276,5.084,5.084,5.084h188.97c2.808,0,5.084-2.276,5.084-5.084v-5.096
					H31.073z"/>
			</g>
		</g>
		<g>
			<g>
				<path class="st5" d="M43.172,102.927v146.107c0,2.467,2,4.467,4.467,4.467h166.007c2.467,0,4.467-2,4.467-4.467V102.927H43.172z
					"/>
			</g>
		</g>
		<g>
			<g>
				<path class="st25" d="M194.404,190.5h-58.523c-1.236,0-2.238,1.002-2.238,2.238V253.5h63v-60.762
					C196.643,191.502,195.64,190.5,194.404,190.5z"/>
			</g>
		</g>
		<g>
			<g>
				<path class="st25" d="M131.199,191.807l-10.049-2.13c-1.547-0.328-3.068,0.66-3.396,2.208l-11.877,56.027
					c-0.328,1.547,0.661,3.068,2.208,3.396l10.049,2.13c1.547,0.328,3.068-0.66,3.396-2.208l11.877-56.027
					C133.735,193.655,132.746,192.135,131.199,191.807z"/>
			</g>
		</g>
		<g>
			<g>
				<rect x="64.643" y="221.5" class="st25" width="41" height="32"/>
			</g>
		</g>
		<g>
			<g>
				<path class="st25" d="M103.404,166.5H66.881c-1.236,0-2.238,1.002-2.238,2.238V221.5h41v-52.762
					C105.643,167.502,104.64,166.5,103.404,166.5z"/>
			</g>
		</g>
		<g>
			<g>
				<path class="st25" d="M183.404,166.5h-36.523c-1.236,0-2.238,1.002-2.238,2.238V190.5h41v-21.762
					C185.643,167.502,184.64,166.5,183.404,166.5z"/>
			</g>
		</g>
		<g>
			<g>
				<path class="st8" d="M149.19,129.926c-2.762-7.578-10.014-12.992-18.548-12.992c-8.534,0-15.786,5.414-18.548,12.992
					c-0.668,1.832,0.665,3.777,2.615,3.777h31.865C148.525,133.703,149.858,131.758,149.19,129.926z"/>
			</g>
		</g>
		<g>
			<g>
				<path class="st4" d="M124.653,133.703v5.517c0,3.307,2.682,5.989,5.989,5.989s5.989-2.682,5.989-5.989v-5.517H124.653z"/>
			</g>
		</g>
		<g>
			<g>
				<path class="st8" d="M155.143,190.5v17.762c0,1.236,1.002,2.238,2.238,2.238h15.523c1.236,0,2.238-1.002,2.238-2.238V190.5
					H155.143z"/>
			</g>
		</g>
		<g>
			<g>
				<path class="st8" d="M78.433,166.5v15.762c0,1.236,1.002,2.238,2.238,2.238h8.942c1.236,0,2.238-1.002,2.238-2.238V166.5H78.433
					z"/>
			</g>
		</g>
		<g>
			<g>
				<path class="st8" d="M158.433,166.5v8.762c0,1.236,1.002,2.238,2.238,2.238h8.942c1.236,0,2.238-1.002,2.238-2.238V166.5
					H158.433z"/>
			</g>
		</g>
		<g>
			<g>
				<g>
					<path d="M235.013,82.127L134.958,8.32c-2.582-1.904-6.05-1.905-8.63,0L26.272,82.127c-2.572,1.897-3.589,5.085-2.59,8.121
						c0.999,3.036,3.709,4.998,6.905,4.998h200.11c3.196,0,5.907-1.962,6.905-4.998C238.602,87.212,237.585,84.024,235.013,82.127z
						 M232.853,88.686c-0.12,0.366-0.632,1.561-2.156,1.561H30.587c-1.524,0-2.035-1.194-2.155-1.56
						c-0.121-0.366-0.418-1.63,0.808-2.535l100.056-73.807c0.403-0.297,0.875-0.446,1.347-0.446s0.944,0.149,1.347,0.446
						l100.055,73.807C233.271,87.056,232.974,88.32,232.853,88.686z"/>
				</g>
			</g>
		</g>
		<g>
			<g>
				<path d="M230.212,90.958c-1.381,0-2.5,1.119-2.5,2.5v4.384c0,1.425-1.159,2.584-2.584,2.584H36.157
					c-1.425,0-2.584-1.159-2.584-2.584v-4.259c0-1.381-1.119-2.5-2.5-2.5s-2.5,1.119-2.5,2.5v4.259c0,4.182,3.402,7.584,7.584,7.584
					h188.971c4.182,0,7.584-3.402,7.584-7.584v-4.384C232.712,92.077,231.593,90.958,230.212,90.958z"/>
			</g>
		</g>
		<g>
			<g>
				<g>
					<path d="M218.112,100.427H43.172c-1.381,0-2.5,1.119-2.5,2.5v146.107c0,3.841,3.125,6.966,6.967,6.966h166.007
						c3.841,0,6.966-3.125,6.966-6.966V102.927C220.612,101.546,219.493,100.427,218.112,100.427z M215.612,249.034
						c0,1.084-0.882,1.966-1.966,1.966H47.639c-1.084,0-1.967-0.882-1.967-1.966V105.427h169.94V249.034z"/>
				</g>
			</g>
		</g>
		<g>
			<g>
				<path d="M130.643,101.467c-1.381,0-2.5,1.119-2.5,2.5v11.769c0,1.381,1.119,2.5,2.5,2.5s2.5-1.119,2.5-2.5v-11.769
					C133.143,102.586,132.023,101.467,130.643,101.467z"/>
			</g>
		</g>
		<g>
			<g>
				<path d="M130.643,152.764c-1.381,0-2.5,1.119-2.5,2.5v5.989c0,1.381,1.119,2.5,2.5,2.5s2.5-1.119,2.5-2.5v-5.989
					C133.143,153.883,132.023,152.764,130.643,152.764z"/>
			</g>
		</g>
		<g>
			<g>
				<path d="M147.32,153.558l-4.235-4.235c-0.976-0.977-2.56-0.977-3.535,0c-0.977,0.976-0.977,2.559,0,3.535l4.235,4.235
					c0.488,0.488,1.128,0.732,1.768,0.732s1.28-0.244,1.768-0.732C148.296,156.117,148.296,154.534,147.32,153.558z"/>
			</g>
		</g>
		<g>
			<g>
				<path d="M121.911,148.899c-0.976-0.977-2.56-0.977-3.535,0l-4.235,4.235c-0.977,0.976-0.977,2.559,0,3.535
					c0.488,0.488,1.128,0.732,1.768,0.732s1.28-0.244,1.768-0.732l4.235-4.235C122.887,151.458,122.887,149.875,121.911,148.899z"/>
			</g>
		</g>
		<g>
			<g>
				<path class="st5" d="M178.625,8.882c-4.498-0.837-8.043-4.31-8.898-8.716c-0.043-0.221-0.352-0.221-0.395,0
					c-0.855,4.406-4.4,7.879-8.898,8.716c-0.226,0.042-0.226,0.345,0,0.387c4.498,0.838,8.043,4.311,8.898,8.717
					c0.043,0.221,0.352,0.221,0.395,0c0.855-4.406,4.4-7.879,8.898-8.717C178.851,9.227,178.851,8.925,178.625,8.882z"/>
			</g>
		</g>
		<g>
			<g>
				<path class="st1" d="M242.665,133.928c-3.435-0.64-6.143-3.292-6.796-6.658c-0.033-0.169-0.269-0.169-0.302,0
					c-0.653,3.365-3.361,6.018-6.796,6.658c-0.172,0.032-0.172,0.263,0,0.295c3.435,0.64,6.143,3.292,6.796,6.657
					c0.033,0.169,0.269,0.169,0.302,0c0.653-3.365,3.361-6.018,6.796-6.657C242.838,134.191,242.838,133.96,242.665,133.928z"/>
			</g>
		</g>
		<g>
			<g>
				<path class="st7" d="M27.336,179.302h-2.329v-2.33c0-1.744-1.413-3.157-3.157-3.157s-3.157,1.413-3.157,3.157v2.33h-2.33
					c-1.744,0-3.157,1.413-3.157,3.157c0,1.744,1.413,3.157,3.157,3.157h2.33v2.33c0,1.744,1.413,3.157,3.157,3.157
					s3.157-1.414,3.157-3.157v-2.33h2.329c1.744,0,3.157-1.413,3.157-3.157C30.494,180.715,29.08,179.302,27.336,179.302z"/>
			</g>
		</g>
		<g>
			<g>
				<path class="st6" d="M185.642,24.06c-1.865,0-3.377,1.512-3.377,3.377s1.512,3.377,3.377,3.377c1.865,0,3.377-1.512,3.377-3.377
					S187.507,24.06,185.642,24.06z"/>
			</g>
		</g>
		<g>
			<g>
				<path class="st5" d="M27.642,207.06c-1.865,0-3.377,1.512-3.377,3.377s1.512,3.377,3.377,3.377c1.865,0,3.377-1.512,3.377-3.377
					S29.507,207.06,27.642,207.06z"/>
			</g>
		</g>
		<g>
			<g>
				<path d="M194.404,188h-58.523c-2.613,0-4.738,2.125-4.738,4.738v60.042c0,1.381,1.119,2.5,2.5,2.5s2.5-1.119,2.5-2.5V193h58
					v59.104c0,1.381,1.119,2.5,2.5,2.5s2.5-1.119,2.5-2.5v-59.366C199.143,190.125,197.017,188,194.404,188z"/>
			</g>
		</g>
		<g>
			<g>
				<g>
					<path d="M131.718,189.361l-10.049-2.13c-2.891-0.61-5.746,1.242-6.36,4.135l-11.877,56.027
						c-0.613,2.894,1.242,5.747,4.135,6.36l10.049,2.13c0.374,0.079,0.746,0.117,1.114,0.117c2.479,0,4.711-1.732,5.246-4.252
						l11.876-56.027C136.466,192.828,134.611,189.975,131.718,189.361z M130.961,194.684l-11.876,56.027
						c-0.042,0.197-0.238,0.323-0.431,0.28l-10.049-2.13c-0.196-0.042-0.323-0.235-0.281-0.432l11.877-56.027
						c0.036-0.171,0.188-0.289,0.355-0.289c0.025,0,0.05,0.003,0.076,0.008l10.049,2.13
						C130.877,194.294,131.003,194.487,130.961,194.684z"/>
				</g>
			</g>
		</g>
		<g>
			<g>
				<path d="M105.643,219h-41c-1.381,0-2.5,1.119-2.5,2.5v31.406c0,1.381,1.119,2.5,2.5,2.5s2.5-1.119,2.5-2.5V224h36v28.625
					c0,1.381,1.119,2.5,2.5,2.5s2.5-1.119,2.5-2.5V221.5C108.143,220.119,107.023,219,105.643,219z"/>
			</g>
		</g>
		<g>
			<g>
				<path d="M103.404,164H66.881c-2.613,0-4.738,2.125-4.738,4.738V221.5c0,1.381,1.119,2.5,2.5,2.5s2.5-1.119,2.5-2.5V169h36v52.5
					c0,1.381,1.119,2.5,2.5,2.5s2.5-1.119,2.5-2.5v-52.762C108.143,166.125,106.017,164,103.404,164z"/>
			</g>
		</g>
		<g>
			<g>
				<path d="M183.404,164h-36.523c-2.613,0-4.738,2.125-4.738,4.738v20.804c0,1.381,1.119,2.5,2.5,2.5s2.5-1.119,2.5-2.5V169h36
					v20.583c0,1.381,1.119,2.5,2.5,2.5s2.5-1.119,2.5-2.5v-20.845C188.143,166.125,186.017,164,183.404,164z"/>
			</g>
		</g>
		<g>
			<g>
				<g>
					<path d="M151.539,129.07c-3.19-8.754-11.588-14.636-20.896-14.636s-17.706,5.882-20.897,14.636
						c-0.595,1.635-0.357,3.459,0.638,4.881c0.987,1.411,2.604,2.252,4.326,2.252h31.865c1.722,0,3.339-0.842,4.327-2.252
						C151.896,132.529,152.135,130.705,151.539,129.07z M146.805,131.083c-0.083,0.12-0.19,0.12-0.23,0.12H114.71
						c-0.04,0-0.146,0-0.23-0.12c-0.064-0.091-0.076-0.193-0.037-0.302c2.474-6.788,8.984-11.348,16.199-11.348
						s13.725,4.561,16.198,11.348l0,0C146.881,130.891,146.869,130.993,146.805,131.083z"/>
				</g>
			</g>
		</g>
		<g>
			<g>
				<path d="M136.631,131.958c-1.381,0-2.5,1.119-2.5,2.5v4.762c0,1.924-1.565,3.489-3.489,3.489s-3.489-1.565-3.489-3.489v-4.677
					c0-1.381-1.119-2.5-2.5-2.5s-2.5,1.119-2.5,2.5v4.677c0,4.681,3.808,8.489,8.489,8.489c4.681,0,8.489-3.808,8.489-8.489v-4.762
					C139.131,133.077,138.012,131.958,136.631,131.958z"/>
			</g>
		</g>
		<g>
			<g>
				<path d="M175.143,189.042c-1.381,0-2.5,1.119-2.5,2.5V208h-15v-16.375c0-1.381-1.119-2.5-2.5-2.5s-2.5,1.119-2.5,2.5v16.637
					c0,2.613,2.125,4.738,4.738,4.738h15.523c2.613,0,4.738-2.125,4.738-4.738v-16.719
					C177.643,190.162,176.523,189.042,175.143,189.042z"/>
			</g>
		</g>
		<g>
			<g>
				<path d="M91.852,164.625c-1.381,0-2.5,1.119-2.5,2.5V182h-8.418v-14.833c0-1.381-1.119-2.5-2.5-2.5s-2.5,1.119-2.5,2.5v15.095
					c0,2.613,2.125,4.738,4.738,4.738h8.941c2.613,0,4.738-2.125,4.738-4.738v-15.137C94.352,165.744,93.232,164.625,91.852,164.625
					z"/>
			</g>
		</g>
		<g>
			<g>
				<path d="M171.852,165.083c-1.381,0-2.5,1.119-2.5,2.5V175h-8.418v-7.458c0-1.381-1.119-2.5-2.5-2.5s-2.5,1.119-2.5,2.5v7.72
					c0,2.613,2.125,4.738,4.738,4.738h8.941c2.613,0,4.738-2.125,4.738-4.738v-7.679
					C174.352,166.202,173.232,165.083,171.852,165.083z"/>
			</g>
		</g>
	</g>
</g>
<g id="Layer_43">
</g>
<g id="Layer_44">
</g>
<g id="Layer_45">
</g>
<g id="Layer_46">
</g>
<g id="Layer_47">
</g>
<g id="Layer_48">
</g>
<g id="Layer_49">
</g>
<g id="Layer_50">
</g>
<g id="Layer_51">
</g>
<g id="Layer_52">
</g>
<g id="Layer_53">
</g>
<g id="Layer_54">
</g>
<g id="Layer_55">
</g>
<g id="Layer_56">
</g>
<g id="Layer_57">
</g>
<g id="Layer_58">
</g>
<g id="Layer_59">
</g>
<g id="Layer_60">
</g>
<g id="Layer_61">
</g>
<g id="Layer_62">
</g>
<g id="Layer_63">
</g>
<g id="Layer_64">
</g>
<g id="Layer_65">
</g>
<g id="Layer_66">
</g>
<g id="Layer_67">
</g>
<g id="Layer_68">
</g>
<g id="Layer_69">
</g>
<g id="Layer_70">
</g>
<g id="Layer_71">
</g>
<g id="Layer_72">
</g>
<g id="Layer_73">
</g>
<g id="Layer_74">
</g>
<g id="Layer_75">
</g>
<g id="Layer_76">
</g>
<g id="Layer_77">
</g>
<g id="Layer_78">
</g>
<g id="Layer_79">
</g>
<g id="Layer_80">
</g>
<g id="Layer_81">
</g>
<g id="Layer_82">
</g>
<g id="Layer_83">
</g>
<g id="Layer_84">
</g>
<g id="Layer_85">
</g>
</svg>
