<?xml version="1.0" encoding="utf-8"?>
<!-- Generator: Adobe Illustrator 18.0.0, SVG Export Plug-In . SVG Version: 6.00 Build 0)  -->
<!DOCTYPE svg PUBLIC "-//W3C//DTD SVG 1.1//EN" "http://www.w3.org/Graphics/SVG/1.1/DTD/svg11.dtd">
<svg version="1.1" id="ecommerce_1_" xmlns="http://www.w3.org/2000/svg" xmlns:xlink="http://www.w3.org/1999/xlink" x="0px"
	 y="0px" viewBox="0 0 115 115" style="enable-background:new 0 0 115 115;" xml:space="preserve">
<style type="text/css">
	.st0{fill:#FFEEAD;}
	.st1{fill:#C9B77D;}
	.st2{fill:#99734A;}
	.st3{fill:#FF6F69;}
	.st4{fill:#96CEB4;}
	.st5{fill:none;}
	.st6{fill:#AA9865;}
	.st7{fill:#71A58A;}
	.st8{fill:#FFCC5C;}
	.st9{fill:#825E3B;}
	.st10{fill:#639376;}
	.st11{fill:#E05858;}
	.st12{fill:#C1821E;}
	.st13{fill:#D6A041;}
	.st14{fill:#B28559;}
	.st15{fill:#BF4343;}
	.st16{fill:#D3C089;}
	.st17{fill:#7C5C3C;}
	.st18{fill:#FDCC5C;}
	.st19{fill:#FFFFFF;}
</style>
<g id="live_chat_1_">
	<g>
		<path class="st4" d="M35.945,48.279C16.093,48.279,0,60.292,0,75.111c0,7.53,4.16,14.331,10.852,19.204l-6.856,10.159
			c-0.673,0.997,0.353,2.261,1.467,1.809l16.17-6.557c4.387,1.423,9.224,2.217,14.313,2.217c19.852,0,35.945-12.013,35.945-26.832
			C71.889,60.292,55.796,48.279,35.945,48.279z"/>
	</g>
	<g>
		<g>
			<path class="st7" d="M35.945,48.279c-7.808,0-15.029,1.864-20.923,5.021c2.927,17.408,22.813,30.878,46.926,30.878
				c2.753,0,5.446-0.186,8.069-0.522c1.208-2.685,1.873-5.556,1.873-8.545C71.889,60.292,55.796,48.279,35.945,48.279z"/>
		</g>
	</g>
	<g>
		<path class="st0" d="M102.024,68.222C110.061,61.892,115,53.349,115,43.94c0-19.505-21.182-35.317-47.311-35.317
			c-26.129,0-47.311,15.812-47.311,35.317s21.182,35.317,47.311,35.317c7.227,0,14.071-1.214,20.197-3.377l21.992,8.919
			c1.382,0.56,2.653-1.008,1.819-2.244L102.024,68.222z"/>
	</g>
	<g>
		<g>
			<g>
				<circle class="st2" cx="44.738" cy="43.94" r="4.868"/>
			</g>
		</g>
		<g>
			<g>
				<circle class="st2" cx="60.038" cy="43.94" r="4.868"/>
			</g>
		</g>
		<g>
			<g>
				<circle class="st2" cx="75.339" cy="43.94" r="4.868"/>
			</g>
		</g>
		<g>
			<g>
				<circle class="st2" cx="90.64" cy="43.94" r="4.868"/>
			</g>
		</g>
	</g>
</g>
</svg>
