<?xml version="1.0" encoding="UTF-8"?>
<!DOCTYPE svg PUBLIC "-//W3C//DTD SVG 1.1//EN" "http://www.w3.org/Graphics/SVG/1.1/DTD/svg11.dtd">
<!-- Creator: CorelDRAW -->
<svg xmlns="http://www.w3.org/2000/svg" xml:space="preserve" width="2048px" height="2048px" style="shape-rendering:geometricPrecision; text-rendering:geometricPrecision; image-rendering:optimizeQuality; fill-rule:evenodd; clip-rule:evenodd"
viewBox="0 0 2048 2048"
 xmlns:xlink="http://www.w3.org/1999/xlink">
 <defs>
  <style type="text/css">
   <![CDATA[
    .fil0 {fill:none}
    .fil1 {fill:#D32F2F}
    .fil2 {fill:#EF5350}
    .fil3 {fill:#FBC02D}
   ]]>
  </style>
 </defs>
 <g id="Layer_x0020_1">
  <metadata id="CorelCorpID_0Corel-Layer"/>
  <rect class="fil0" width="2048" height="2048"/>
  <rect class="fil0" x="255.999" y="255.999" width="1536" height="1536"/>
  <rect class="fil0" x="255.999" y="255.999" width="1536" height="1536"/>
  <rect class="fil0" x="255.999" y="255.999" width="1536" height="1536"/>
  <g id="_346594816">
   <path id="_346595608" class="fil1" d="M393.155 808.901c0,119.662 97.0265,216.718 216.696,216.718 119.7,0 216.727,-97.056 216.727,-216.718 0,-119.7 -97.0265,-216.696 -216.727,-216.696 -119.669,-0.022441 -216.696,96.9957 -216.696,216.696zm361.191 216.718l-288.943 0c-119.197,0 -216.727,64.9973 -216.727,144.442l0 144.494 722.357 0 0 -144.494c0,-79.4445 -97.4918,-144.442 -216.688,-144.442z"/>
   <path id="_346595440" class="fil1" d="M1434.35 1145.68l-242.802 0 -0.569292 0 0 486.668 0.151181 0 608.198 0 0 -243.378c0,-133.811 -164.211,-243.29 -364.979,-243.29z"/>
   <path id="_346595272" class="fil1" d="M1190.97 1145.68l0.569292 -0.00826772c201.351,-0.311811 364.465,-163.662 364.465,-365.021 0,-201.213 -162.776,-364.325 -363.838,-364.976 -0.400394,0 -0.797245,-0.0153543 -1.19646,-0.0153543l0 730.021z"/>
   <path id="_346595104" class="fil2" d="M1190.97 1145.68l0 486.668 -608.351 0 0 -243.378c0,-133.811 164.274,-243.29 365.041,-243.29l243.31 0z"/>
   <path id="_346594912" class="fil2" d="M825.976 780.648c0,201.553 163.427,365.029 364.992,365.029l0.00708662 0 0 -730.021 -0.00708662 0c-201.565,-0.0389764 -364.992,163.376 -364.992,364.992z"/>
   <path id="_346594888" class="fil3" d="M547.991 1173.32l-153.986 147.078 87.9331 0c22.0205,147.213 131.974,210.223 241.927,231.274 -76.9926,-52.5591 -112.096,-126.162 -112.096,-231.274l90.0768 0 -153.854 -147.078z"/>
  </g>
 </g>
</svg>
