<svg width="16" height="17" viewBox="0 0 16 17" fill="none" xmlns="http://www.w3.org/2000/svg">
<path d="M1.66675 8.49984C1.66675 5.68002 1.66675 4.27011 2.46539 3.33501C2.5788 3.20223 2.70247 3.07856 2.83525 2.96515C3.77035 2.1665 5.18026 2.1665 8.00008 2.1665C10.8199 2.1665 12.2298 2.1665 13.1649 2.96515C13.2977 3.07856 13.4214 3.20223 13.5348 3.33501C14.3334 4.27011 14.3334 5.68002 14.3334 8.49984C14.3334 11.3197 14.3334 12.7296 13.5348 13.6647C13.4214 13.7974 13.2977 13.9211 13.1649 14.0345C12.2298 14.8332 10.8199 14.8332 8.00008 14.8332C5.18026 14.8332 3.77035 14.8332 2.83525 14.0345C2.70247 13.9211 2.5788 13.7974 2.46539 13.6647C1.66675 12.7296 1.66675 11.3197 1.66675 8.49984Z" stroke="#F44D21" stroke-width="1.5"/>
<path d="M8.68775 11.8335L5.79175 9.59354V8.75354H7.98375C8.19708 8.75354 8.38375 8.71087 8.54375 8.62554C8.70375 8.5402 8.82908 8.42287 8.91975 8.27354C9.01042 8.11887 9.05575 7.93754 9.05575 7.72954C9.05575 7.52154 9.01042 7.34287 8.91975 7.19354C8.82908 7.03887 8.70375 6.92154 8.54375 6.84154C8.38375 6.7562 8.19708 6.71354 7.98375 6.71354H5.79175V5.87354H10.4717V6.48954H9.13575L9.36775 6.31354C9.56508 6.47354 9.71708 6.67354 9.82375 6.91354C9.93575 7.15354 9.99175 7.4282 9.99175 7.73754C9.99175 8.12154 9.90375 8.4522 9.72775 8.72954C9.55708 9.00687 9.31975 9.2202 9.01575 9.36954C8.71175 9.51887 8.35975 9.59354 7.95975 9.59354H6.80775L6.89575 9.32954L10.0797 11.8335H8.68775ZM5.79175 8.04154V7.41754H10.4717V8.04154H5.79175Z" fill="#F44D21"/>
</svg>
