<?xml version="1.0" encoding="UTF-8"?>
<!DOCTYPE svg PUBLIC "-//W3C//DTD SVG 1.1//EN" "http://www.w3.org/Graphics/SVG/1.1/DTD/svg11.dtd">
<!-- Creator: CorelDRAW -->
<svg xmlns="http://www.w3.org/2000/svg" xml:space="preserve" width="6.82666in" height="6.82666in" style="shape-rendering:geometricPrecision; text-rendering:geometricPrecision; image-rendering:optimizeQuality; fill-rule:evenodd; clip-rule:evenodd"
viewBox="0 0 6.82666 6.82666"
 xmlns:xlink="http://www.w3.org/1999/xlink">
 <defs>
  <style type="text/css">
   <![CDATA[
    .fil0 {fill:#AB47BC}
    .fil1 {fill:#FFFFFE;fill-rule:nonzero}
   ]]>
  </style>
 </defs>
 <g id="Layer_x0020_1">
  <metadata id="CorelCorpID_0Corel-Layer"/>
  <rect class="fil0" width="6.82666" height="6.82666" rx="0.853335" ry="0.853335"/>
  <path class="fil1" d="M1.26874 0.853339l4.29124 0c0.0519724,0 0.0952598,0.0371732 0.104736,0.086378l0.30439 1.09583 0.000311024 -8.66142e-005c0.0157638,0.0567598 -0.0174685,0.115559 -0.0742283,0.131323 -0.010126,0.00281102 -0.020315,0.00405512 -0.030315,0.0038937l-4.90489 0c-0.0589094,0 -0.106669,-0.0477598 -0.106669,-0.106669 0,-0.012937 0.00230315,-0.0253386 0.00652362,-0.036815l0.304303 -1.09552 0.1025 0.0283346 -0.102776 -0.0285472c0.013311,-0.0479331 0.057315,-0.0790866 0.104866,-0.078122z"/>
  <path class="fil1" d="M2.19963 1.95734l0.61787 0 0.106669 0 0 0.106669 0 0.46202c0,0.106961 -0.0486417,0.203587 -0.127,0.273079 -0.0748386,0.0663701 -0.177067,0.107571 -0.288598,0.107571l-7.87402e-006 0c-0.111539,0 -0.213764,-0.0412008 -0.288602,-0.107571 -0.0783583,-0.0694921 -0.127,-0.166118 -0.127,-0.273079l0 -0.46202 0 -0.106669 0.106669 0z"/>
  <polygon class="fil1" points="1.49598,2.45333 1.49598,4.51734 1.28264,4.51734 1.28264,2.45333 "/>
  <polygon class="fil1" points="5.66665,2.45333 5.66665,4.51734 5.45331,4.51734 5.45331,2.45333 "/>
  <path class="fil1" d="M1.26173 1.95734l0.61787 0 0.106669 0 0 0.106669 0 0.46202c0,0.106961 -0.0486417,0.203587 -0.127,0.273079 -0.0748386,0.0663701 -0.177067,0.107571 -0.288598,0.107571l-7.87402e-006 0c-0.111539,0 -0.213764,-0.0412008 -0.288602,-0.107571 -0.0783583,-0.0694921 -0.127,-0.166118 -0.127,-0.273079l0 -0.46202 0 -0.106669 0.106669 0z"/>
  <path class="fil1" d="M3.13753 1.95734l0.61787 0 0.106669 0 0 0.106669 0 0.46202c0,0.106961 -0.0486417,0.203587 -0.127,0.273079 -0.0748386,0.0663701 -0.177067,0.107571 -0.288598,0.107571l-7.87402e-006 0c-0.111539,0 -0.213764,-0.0412008 -0.288602,-0.107571 -0.0783583,-0.0694921 -0.127,-0.166118 -0.127,-0.273079l0 -0.46202 0 -0.106669 0.106669 0z"/>
  <path class="fil1" d="M4.07543 1.95734l0.61787 0 0.106669 0 0 0.106669 0 0.46202c0,0.106961 -0.0486417,0.203587 -0.127,0.273079 -0.0748386,0.0663701 -0.177067,0.107571 -0.288598,0.107571l-7.87402e-006 0c-0.111539,0 -0.213764,-0.0412008 -0.288602,-0.107571 -0.0783583,-0.0694921 -0.127,-0.166118 -0.127,-0.273079l0 -0.46202 0 -0.106669 0.106669 0z"/>
  <path class="fil1" d="M5.01333 1.95734l0.61787 0 0.106669 0 0 0.106669 0 0.46202c0,0.106961 -0.0486417,0.203587 -0.127,0.273079 -0.0748386,0.0663701 -0.177067,0.107571 -0.288598,0.107571l-7.87402e-006 0c-0.111539,0 -0.213764,-0.0412008 -0.288602,-0.107571 -0.0783583,-0.0694921 -0.127,-0.166118 -0.127,-0.273079l0 -0.46202 0 -0.106669 0.106669 0z"/>
  <path class="fil1" d="M1.25898 4.41067l4.30867 0c0.0890551,0 0.170969,0.0316299 0.231185,0.0825827 0.0650827,0.0550709 0.10548,0.132402 0.10548,0.218697l0 0.96011c0,0.0862992 -0.0403976,0.163634 -0.10548,0.218697 -0.0602126,0.0509528 -0.14213,0.0825866 -0.231185,0.0825866l-4.30867 0c-0.0890551,0 -0.170972,-0.0316339 -0.231185,-0.0825866 -0.0650827,-0.055063 -0.10548,-0.132398 -0.10548,-0.218697l0 -0.96011c0,-0.0862913 0.0403976,-0.16363 0.105476,-0.218697 0.0602205,-0.0509488 0.14213,-0.0825827 0.231189,-0.0825827z"/>
  <g id="_318671472">
   <polygon id="_318672384" class="fil1" points="3.4225,4.35391 3.4225,3.86574 3.4225,3.78323 3.50501,3.78323 4.35894,3.78323 4.44145,3.78323 4.44145,3.86574 4.44145,4.35391 "/>
   <polygon id="_318671496" class="fil1" points="2.38519,4.35391 2.38519,3.94044 2.38519,3.87056 2.45507,3.87056 3.17833,3.87056 3.24822,3.87056 3.24822,3.94044 3.24822,4.35391 "/>
  </g>
 </g>
</svg>
