<svg width="12" height="13" viewBox="0 0 12 13" fill="none" xmlns="http://www.w3.org/2000/svg">
<path d="M5.5 7.8335C5.36739 7.8335 5.24022 7.78082 5.14645 7.68705C5.05268 7.59328 5 7.4661 5 7.3335C5 7.20089 5.05268 7.07371 5.14645 6.97994C5.24022 6.88617 5.36739 6.8335 5.5 6.8335C5.63261 6.8335 5.75978 6.88617 5.85355 6.97994C5.94732 7.07371 6 7.20089 6 7.3335C6 7.4661 5.94732 7.59328 5.85355 7.68705C5.75978 7.78082 5.63261 7.8335 5.5 7.8335Z" fill="#F44D21"/>
<path fill-rule="evenodd" clip-rule="evenodd" d="M1.143 5.16667C1.20789 5.16667 1.27133 5.16133 1.33333 5.15067V7.83333H0.500001C0.455798 7.83333 0.413406 7.85089 0.38215 7.88215C0.350894 7.9134 0.333334 7.9558 0.333334 8V8.33333C0.333334 8.37754 0.350894 8.41993 0.38215 8.45118C0.413406 8.48244 0.455798 8.5 0.500001 8.5H11.5C11.5442 8.5 11.5866 8.48244 11.6179 8.45118C11.6491 8.41993 11.6667 8.37754 11.6667 8.33333V8C11.6667 7.9558 11.6491 7.9134 11.6179 7.88215C11.5866 7.85089 11.5442 7.83333 11.5 7.83333H10.6667V5.15067C10.7289 5.16133 10.7923 5.16667 10.857 5.16667C11.491 5.16667 12 4.64933 12 4.017V3.22033C12.0002 3.11461 11.9818 3.00967 11.9457 2.91033L11.219 0.907C11.1759 0.787763 11.0971 0.684712 10.9933 0.611883C10.8895 0.539053 10.7658 0.499985 10.639 0.5H1.36067C1.23395 0.500147 1.11036 0.539327 1.0067 0.612211C0.903039 0.685094 0.824349 0.788141 0.781334 0.907333L0.0546674 2.91033C0.0183754 3.00965 -0.000129791 3.11459 6.85175e-07 3.22033V4.017C6.85175e-07 4.64933 0.509001 5.16667 1.143 5.16667ZM0.681334 3.13767L1.39633 1.16667H10.6033L11.3183 3.13767C11.3281 3.16433 11.333 3.19189 11.333 3.22033V4.017C11.3338 4.14419 11.2841 4.2665 11.1948 4.35706C11.1055 4.44762 10.9839 4.49903 10.8567 4.5C10.5967 4.5 10.3807 4.28667 10.3807 4.017C10.3807 3.92859 10.3455 3.84381 10.283 3.7813C10.2205 3.71879 10.1357 3.68367 10.0473 3.68367C9.95893 3.68367 9.87414 3.71879 9.81163 3.7813C9.74912 3.84381 9.714 3.92859 9.714 4.017C9.7148 4.14419 9.66508 4.2665 9.57577 4.35706C9.48646 4.44762 9.36486 4.49903 9.23767 4.5C8.97767 4.5 8.76167 4.28667 8.76167 4.01733C8.76167 3.92893 8.72655 3.84414 8.66404 3.78163C8.60152 3.71912 8.51674 3.684 8.42833 3.684C8.33993 3.684 8.25514 3.71912 8.19263 3.78163C8.13012 3.84414 8.095 3.92893 8.095 4.01733C8.095 4.28667 7.879 4.5 7.61867 4.5C7.35833 4.5 7.14267 4.28667 7.14267 4.017C7.14267 3.92859 7.10755 3.84381 7.04504 3.7813C6.98252 3.71879 6.89774 3.68367 6.80933 3.68367C6.72093 3.68367 6.63614 3.71879 6.57363 3.7813C6.51112 3.84381 6.476 3.92859 6.476 4.017C6.4768 4.14413 6.42713 4.26639 6.33789 4.35694C6.24865 4.44749 6.12713 4.49894 6 4.5C5.87287 4.49903 5.75132 4.44767 5.66201 4.35718C5.57271 4.26669 5.52296 4.14447 5.52367 4.01733C5.52367 3.92893 5.48855 3.84414 5.42604 3.78163C5.36352 3.71912 5.27874 3.684 5.19033 3.684C5.10193 3.684 5.01714 3.71912 4.95463 3.78163C4.89212 3.84414 4.857 3.92893 4.857 4.01733C4.857 4.28667 4.64133 4.5 4.381 4.5C4.12067 4.5 3.90467 4.28667 3.90467 4.017C3.90467 3.92859 3.86955 3.84381 3.80704 3.7813C3.74452 3.71879 3.65974 3.68367 3.57133 3.68367C3.48293 3.68367 3.39814 3.71879 3.33563 3.7813C3.27312 3.84381 3.238 3.92859 3.238 4.017C3.238 4.28633 3.02233 4.5 2.762 4.5C2.50167 4.5 2.28567 4.28667 2.28567 4.017C2.28567 3.92859 2.25055 3.84381 2.18804 3.7813C2.12552 3.71879 2.04074 3.68367 1.95233 3.68367C1.86393 3.68367 1.77914 3.71879 1.71663 3.7813C1.65412 3.84381 1.619 3.92859 1.619 4.017C1.619 4.28633 1.40333 4.5 1.143 4.5C0.882334 4.5 0.666667 4.28667 0.666667 4.017V3.22033C0.666667 3.19167 0.671556 3.16411 0.681334 3.13767ZM10 4.874C9.79117 5.06281 9.51954 5.16714 9.238 5.16667C9.08741 5.16692 8.93827 5.13717 8.79931 5.07913C8.66035 5.0211 8.53435 4.93595 8.42867 4.82867C8.32295 4.93599 8.19689 5.02116 8.05787 5.0792C7.91885 5.13723 7.76965 5.16697 7.619 5.16667C7.46841 5.16692 7.31927 5.13717 7.18031 5.07913C7.04135 5.0211 6.91535 4.93595 6.80967 4.82867C6.70395 4.93599 6.57789 5.02116 6.43887 5.0792C6.29985 5.13723 6.15065 5.16697 6 5.16667C5.84935 5.16697 5.70015 5.13723 5.56113 5.0792C5.42211 5.02116 5.29605 4.93599 5.19033 4.82867C5.08465 4.93595 4.95865 5.0211 4.81969 5.07913C4.68073 5.13717 4.53159 5.16692 4.381 5.16667C4.064 5.16667 3.77767 5.037 3.57133 4.82867C3.46565 4.93595 3.33965 5.0211 3.20069 5.07913C3.06173 5.13717 2.91259 5.16692 2.762 5.16667C2.46867 5.16667 2.202 5.05567 2 4.874V7.83333H2.83333C2.78913 7.83333 2.74674 7.81577 2.71548 7.78452C2.68423 7.75326 2.66667 7.71087 2.66667 7.66667V7C2.66667 6.9558 2.68423 6.9134 2.71548 6.88215C2.74674 6.85089 2.78913 6.83333 2.83333 6.83333H3.83333C3.87754 6.83333 3.91993 6.85089 3.95119 6.88215C3.98244 6.9134 4 6.9558 4 7V7.16667H4.5C4.5442 7.16667 4.5866 7.18423 4.61785 7.21548C4.64911 7.24674 4.66667 7.28913 4.66667 7.33333V7.66667C4.66667 7.71087 4.64911 7.75326 4.61785 7.78452C4.5866 7.81577 4.5442 7.83333 4.5 7.83333H10V4.874ZM0.666667 9.5C0.666667 9.41159 0.701786 9.32681 0.764299 9.2643C0.826811 9.20179 0.911595 9.16667 1 9.16667H11C11.0884 9.16667 11.1732 9.20179 11.2357 9.2643C11.2982 9.32681 11.3333 9.41159 11.3333 9.5V12.1667C11.3333 12.2551 11.2982 12.3399 11.2357 12.4024C11.1732 12.4649 11.0884 12.5 11 12.5H1C0.911595 12.5 0.826811 12.4649 0.764299 12.4024C0.701786 12.3399 0.666667 12.2551 0.666667 12.1667V9.5ZM1.33333 11.8333V9.83333H10.6667V11.8333H1.33333Z" fill="#F44D21"/>
</svg>
