<svg width="242" height="104" viewBox="0 0 242 104" fill="none" xmlns="http://www.w3.org/2000/svg">
<g clip-path="url(#clip0_18_828)">
<path d="M242 4.47656C239.313 4.74346 237.215 7.01055 237.215 9.76758V10.6436C237.215 13.4005 239.313 15.6666 242 15.9336V21.7432C241.825 21.7258 241.648 21.7168 241.469 21.7168C238.532 21.7168 236.152 24.0968 236.151 27.0332V27.9102C236.151 30.8467 238.532 33.2275 241.469 33.2275C241.648 33.2275 241.825 33.2175 242 33.2002V39.0088C241.825 38.9914 241.648 38.9824 241.469 38.9824C238.532 38.9824 236.151 41.3632 236.151 44.2998V45.1758C236.151 48.1124 238.532 50.4932 241.469 50.4932C241.648 50.4932 241.825 50.4832 242 50.4658V56.2754C241.825 56.258 241.648 56.249 241.469 56.249C238.532 56.249 236.151 58.6298 236.151 61.5664V62.4424C236.151 65.379 238.532 67.7598 241.469 67.7598C241.648 67.7598 241.825 67.7498 242 67.7324V73.542C239.313 73.8089 237.215 76.0751 237.215 78.832V79.709C237.215 82.4659 239.313 84.7311 242 84.998V104.587H-0.460938V84.998C-0.286153 85.0154 -0.109036 85.0264 0.0703125 85.0264C3.00681 85.0264 5.38758 82.6455 5.3877 79.709V78.832C5.38759 75.8955 3.00682 73.5146 0.0703125 73.5146C-0.109004 73.5147 -0.286183 73.5246 -0.460938 73.542V67.7324C2.22594 67.4656 4.32422 65.1995 4.32422 62.4424V61.5664C4.32422 58.8093 2.22597 56.5422 -0.460938 56.2754V50.4658C2.22593 50.199 4.32422 47.9329 4.32422 45.1758V44.2998C4.32422 41.5427 2.22599 39.2756 -0.460938 39.0088V33.2002C2.22595 32.9334 4.32422 30.6673 4.32422 27.9102V27.0332C4.32401 24.2763 2.22583 22.0099 -0.460938 21.7432V15.9336C-0.286168 15.9509 -0.109021 15.9609 0.0703125 15.9609C3.00688 15.9609 5.3877 13.5801 5.3877 10.6436V9.76758C5.3877 6.83101 3.00688 4.4502 0.0703125 4.4502C-0.108987 4.45021 -0.2862 4.45921 -0.460938 4.47656V0H242V4.47656Z" fill="#FEEDE9"/>
<rect width="77.7887" height="12.28" rx="6.14002" transform="matrix(-0.955205 0.295945 -0.225752 -0.974185 242.23 78.1141)" fill="white" fill-opacity="0.35"/>
<rect width="77.7887" height="12.28" rx="6.14002" transform="matrix(0.955205 -0.295945 0.225752 0.974185 93.2485 29.2637)" fill="white" fill-opacity="0.35"/>
<rect width="77.7887" height="12.28" rx="6.14002" transform="matrix(0.955205 -0.295945 0.225752 0.974185 -0.230469 25.886)" fill="white" fill-opacity="0.35"/>
<rect width="77.7887" height="12.28" rx="6.14002" transform="matrix(0.955205 -0.295945 0.225752 0.974185 7.55957 57.4116)" fill="white" fill-opacity="0.35"/>
<rect width="77.7887" height="12.28" rx="6.14002" transform="matrix(-0.955205 0.295945 -0.225752 -0.974185 145.831 76.5524)" fill="white" fill-opacity="0.35"/>
<rect width="77.7887" height="12.28" rx="6.14002" transform="matrix(-0.955205 0.295945 -0.225752 -0.974185 234.44 46.1526)" fill="white" fill-opacity="0.35"/>
</g>
<defs>
<clipPath id="clip0_18_828">
<rect width="242" height="104" fill="white"/>
</clipPath>
</defs>
</svg>
