<svg width="16" height="17" viewBox="0 0 16 17" fill="none" xmlns="http://www.w3.org/2000/svg">
<path d="M13.344 1.73047C12.6017 1.73047 12 3.52133 12 5.73047H13.344C13.9918 5.73047 14.3156 5.73047 14.5161 5.50683C14.7166 5.2832 14.6817 4.98869 14.6119 4.39967C14.4276 2.84476 13.9295 1.73047 13.344 1.73047Z" stroke="#F44D21" stroke-width="1.25"/>
<path d="M11.9999 5.76664V12.8277C11.9999 13.8354 11.9999 14.3393 11.692 14.5377C11.1887 14.8618 10.4106 14.1821 10.0193 13.9353C9.69602 13.7314 9.53436 13.6295 9.35494 13.6236C9.16107 13.6172 8.99654 13.715 8.64717 13.9353L7.37325 14.7387C7.02961 14.9554 6.85778 15.0638 6.66659 15.0638C6.47539 15.0638 6.30356 14.9554 5.95992 14.7387L4.686 13.9353C4.36268 13.7314 4.20103 13.6295 4.02161 13.6236C3.82773 13.6172 3.6632 13.715 3.31384 13.9353C2.92255 14.1821 2.1445 14.8618 1.64122 14.5377C1.33325 14.3393 1.33325 13.8354 1.33325 12.8277V5.76664C1.33325 3.86397 1.33325 2.91264 1.91904 2.32155C2.50482 1.73047 3.44763 1.73047 5.33325 1.73047H13.3333" stroke="#F44D21" stroke-width="1.25" stroke-linecap="round" stroke-linejoin="round"/>
<path d="M7.35401 10.3975L4.45801 8.1575V7.3175H6.65001C6.86334 7.3175 7.05001 7.27483 7.21001 7.1895C7.37001 7.10417 7.49534 6.98683 7.58601 6.8375C7.67667 6.68283 7.72201 6.5015 7.72201 6.2935C7.72201 6.0855 7.67667 5.90683 7.58601 5.7575C7.49534 5.60283 7.37001 5.4855 7.21001 5.4055C7.05001 5.32017 6.86334 5.2775 6.65001 5.2775H4.45801V4.4375H9.13801V5.0535H7.80201L8.03401 4.8775C8.23134 5.0375 8.38334 5.2375 8.49001 5.4775C8.60201 5.7175 8.65801 5.99217 8.65801 6.3015C8.65801 6.6855 8.57001 7.01617 8.39401 7.2935C8.22334 7.57083 7.98601 7.78417 7.68201 7.9335C7.37801 8.08283 7.02601 8.1575 6.62601 8.1575H5.47401L5.56201 7.8935L8.74601 10.3975H7.35401ZM4.45801 6.6055V5.9815H9.13801V6.6055H4.45801Z" fill="#F44D21"/>
</svg>
